<?xml version="1.0" encoding="iso-8859-1"?>
<!-- Uploaded to: SVG Repo, www.svgrepo.com, Generator: SVG Repo Mixer Tools -->
<svg height="15px" width="15px" version="1.1" id="Capa_1" xmlns="http://www.w3.org/2000/svg" xmlns:xlink="http://www.w3.org/1999/xlink" 
	 viewBox="0 0 44.143 44.143" xml:space="preserve">
<g>
	<g>
		<path style="fill:#030104;" d="M40.727,0.177H3.416V0.176C1.532,0.176,0,1.708,0,3.592V40.55c0,1.885,1.532,3.416,3.416,3.416
			h37.311c1.885,0,3.416-1.531,3.416-3.416V3.593C44.143,1.709,42.612,0.177,40.727,0.177z M42.143,40.55
			c0,0.781-0.635,1.416-1.416,1.416H3.416C2.635,41.966,2,41.332,2,40.55V3.592c0-0.781,0.635-1.416,1.416-1.416h37.311
			c0.781-0.001,1.416,0.634,1.416,1.416V40.55z"/>
		<path style="fill:#030104;" d="M34.738,21.073H9.404c-0.553,0-1,0.447-1,1s0.447,1,1,1h25.334c0.553,0,1-0.447,1-1
			C35.738,21.519,35.291,21.073,34.738,21.073z"/>
	</g>
</g>
</svg>